<?xml version="1.0" encoding="UTF-8" standalone="no"?>
<!-- Created with Inkscape (http://www.inkscape.org/) -->

<svg
   xmlns:osb="http://www.openswatchbook.org/uri/2009/osb"
   xmlns:dc="http://purl.org/dc/elements/1.1/"
   xmlns:cc="http://creativecommons.org/ns#"
   xmlns:rdf="http://www.w3.org/1999/02/22-rdf-syntax-ns#"
   xmlns:svg="http://www.w3.org/2000/svg"
   xmlns="http://www.w3.org/2000/svg"
   xmlns:xlink="http://www.w3.org/1999/xlink"
   xmlns:sodipodi="http://sodipodi.sourceforge.net/DTD/sodipodi-0.dtd"
   xmlns:inkscape="http://www.inkscape.org/namespaces/inkscape"
   width="597.625"
   height="520.98865"
   id="svg2985"
   version="1.1"
   inkscape:version="0.48.3.1 r9886"
   sodipodi:docname="OpenRPGMaker_BetterLogo.svg"
   inkscape:export-filename="/home/justin/Pictures/Personal/OpenRPGMaker_252x220.png"
   inkscape:export-xdpi="37.950218"
   inkscape:export-ydpi="37.950218">
  <defs
     id="defs2987">
    <linearGradient
       id="linearGradient3995"
       osb:paint="solid">
      <stop
         style="stop-color:#000000;stop-opacity:1;"
         offset="0"
         id="stop3997" />
    </linearGradient>
    <linearGradient
       id="linearGradient3828"
       osb:paint="solid">
      <stop
         style="stop-color:#00a54d;stop-opacity:1;"
         offset="0"
         id="stop3830" />
    </linearGradient>
    <linearGradient
       inkscape:collect="always"
       xlink:href="#linearGradient3995"
       id="linearGradient3999"
       x1="204.24101"
       y1="266.05887"
       x2="395.759"
       y2="266.05887"
       gradientUnits="userSpaceOnUse" />
  </defs>
  <sodipodi:namedview
     id="base"
     pagecolor="#000000"
     bordercolor="#666666"
     borderopacity="1.0"
     inkscape:pageopacity="0"
     inkscape:pageshadow="2"
     inkscape:zoom="0.6875"
     inkscape:cx="269.04446"
     inkscape:cy="240.58343"
     inkscape:current-layer="layer2"
     showgrid="true"
     inkscape:document-units="px"
     inkscape:grid-bbox="true"
     inkscape:snap-bbox="false"
     inkscape:snap-grids="true"
     inkscape:bbox-nodes="true"
     inkscape:window-width="1366"
     inkscape:window-height="701"
     inkscape:window-x="0"
     inkscape:window-y="0"
     inkscape:window-maximized="1"
     inkscape:snap-global="false"
     inkscape:snap-midpoints="true"
     showborder="true"
     inkscape:showpageshadow="true"
     fit-margin-top="0"
     fit-margin-left="0"
     fit-margin-right="0"
     fit-margin-bottom="0" />
  <metadata
     id="metadata2990">
    <rdf:RDF>
      <cc:Work
         rdf:about="">
        <dc:format>image/svg+xml</dc:format>
        <dc:type
           rdf:resource="http://purl.org/dc/dcmitype/StillImage" />
        <dc:title></dc:title>
      </cc:Work>
    </rdf:RDF>
  </metadata>
  <g
     inkscape:groupmode="layer"
     id="layer2"
     inkscape:label="Ocean"
     style="display:inline"
     transform="translate(-3.2045455,-3.2632014)">
    <path
       sodipodi:type="arc"
       style="fill:#20409a;fill-opacity:1;stroke:none"
       id="path3864"
       sodipodi:cx="290.18182"
       sodipodi:cy="301.09091"
       sodipodi:rx="239.27272"
       sodipodi:ry="239.27272"
       d="m 529.45454,301.09091 c 0,132.14668 -107.12604,239.27272 -239.27272,239.27272 -132.14667,0 -239.272717,-107.12604 -239.272717,-239.27272 0,-132.14667 107.126047,-239.272718 239.272717,-239.272718 132.14668,0 239.27272,107.126048 239.27272,239.272718 z"
       transform="matrix(0.98787683,0,0,0.97875829,18.06338,-45.240677)" />
  </g>
  <g
     inkscape:groupmode="layer"
     id="layer3"
     inkscape:label="Continents"
     style="display:inline"
     transform="translate(-3.2045455,-3.2632014)">
    <path
       style="fill:#00a54d;fill-opacity:1;stroke:none"
       d="m 80.61763,296.08824 c -32.992336,-13.19231 -17.931795,-42.19967 -21.051764,-60.6956 -1.07489,-6.96851 -3.884046,-30.02043 3.085556,-40.6265 18.351535,-21.19072 7.25754,-21.11356 11.827968,-32.9126 7.464301,-7.20739 15.639842,-17.79853 26.74149,-18.51336 19.28353,-2.58556 9.34372,1.21346 29.82706,-9.77093 l 50.91169,10.79945 29.31279,66.33947 38.0552,139.87858 c 4.48447,12.76082 8.26687,13.7698 16.97056,31.36983 4.81915,8.3367 4.25133,14.36643 2.05704,21.5989 5.59551,7.27041 1.0755,10.56045 -6.17112,16.4563 -10.50786,5.16027 -22.75219,5.11112 -35.99816,2.05704 -4.49149,-3.92745 -6.84765,-7.61764 -23.14168,-12.85649 -9.03939,0.1545 -19.07811,-1.19 -30.85556,-5.14259 -8.74241,-6.09329 -17.48483,-14.32809 -26.22724,-27.25575 L 123.84831,321.27396 C 114.76295,306.73826 100.6657,298.2909 80.61763,296.08824 z"
       id="path3058"
       inkscape:connector-curvature="0"
       sodipodi:nodetypes="cccccccccccccccccc" />
    <path
       style="fill:#00a54d;fill-opacity:1;stroke:none"
       d="m 257.04151,123.28406 c -40.72639,-52.159231 -3.21862,-77.808056 -2.05704,-77.653179 10.88648,-1.281671 24.11035,4.448818 27.25575,-20.056119 5.82828,-12.867449 11.65655,-19.1782758 17.48483,-21.0846388 19.4001,-4.21108803 28.22757,3.47086 44.74057,7.1996328 13.88497,1.683006 26.49511,3.396281 55.02576,14.399265 l 53.99725,37.026678 c 9.74208,10.56622 31.23208,16.34961 47.82613,30.85557 l 23.65594,55.025771 16.97056,53.99724 c 2.17662,8.21361 3.93266,19.09089 2.05704,52.96873 0.73302,24.76048 -2.46561,47.56817 -11.31371,66.85373 -4.42375,21.51868 -9.18032,40.70789 -19.0276,47.31187 -7.84582,12.57037 -17.63953,31.90618 -26.7415,29.31279 -8.15785,-2.48548 -12.37021,-15.81234 -12.34222,-23.65593 l -5.1426,-36.51243 c 8.28336,-16.0666 36.33576,-43.2588 32.91261,-50.39743 0.20021,-19.82968 -14.63906,-32.06532 -14.39926,-49.88316 1.18834,-19.68877 23.48263,-56.25819 17.99908,-67.88226 -5.42382,-7.72732 -9.14929,-11.29301 -15.94205,-14.91352 -8.54677,-3.99109 -19.00343,-4.16241 -28.79853,-5.65685 l -51.42595,2.57129 z"
       id="path3860"
       inkscape:connector-curvature="0"
       sodipodi:nodetypes="ccccccccccccccccccccccc" />
  </g>
  <g
     inkscape:groupmode="layer"
     id="layer4"
     inkscape:label="Sword Blades"
     style="display:inline"
     transform="translate(-3.2045455,-3.2632014)">
    <path
       style="fill:#8a5838;fill-opacity:1;stroke:#000000;stroke-width:3;stroke-linecap:butt;stroke-linejoin:miter;stroke-miterlimit:4;stroke-opacity:1;stroke-dasharray:none"
       d="M 523.63637,387.02852 115.81818,101.59091 108.36364,84.545459 118.90909,69.090909 501.81818,337.09091 523.63637,387.02852 470.18183,384.36363 86.545451,115.45455 97.090906,100.63636 115.81818,101.59091 z"
       id="path3891"
       inkscape:connector-curvature="0"
       sodipodi:nodetypes="ccccccccccc" />
    <path
       style="fill:#8a5838;fill-opacity:1;stroke:#000000;stroke-width:3;stroke-linecap:butt;stroke-linejoin:miter;stroke-miterlimit:4;stroke-opacity:1;stroke-dasharray:none"
       d="m 483.82994,69.286819 11.31371,15.42778 -7.71389,17.227691 -407.80777,285.15688 407.80777,-285.15688 18.51334,-1.28564 11.31371,14.91352 -383.12331,268.44345 -54.51151,3.08555 21.59889,-49.88316 z"
       id="path3895"
       inkscape:connector-curvature="0"
       sodipodi:nodetypes="ccccccccccc" />
  </g>
  <g
     inkscape:groupmode="layer"
     id="layer7"
     inkscape:label="Sword Hilts"
     style="display:inline"
     transform="translate(-3.2045455,-3.2632014)">
    <path
       style="fill:#f5ac15;fill-opacity:1;stroke:#000000;stroke-width:3;stroke-linecap:butt;stroke-linejoin:bevel;stroke-miterlimit:4;stroke-opacity:1;stroke-dasharray:none"
       d="m 27.454545,16.715909 c -12.558906,0 -22.7499995,10.191094 -22.7499995,22.75 0,12.55891 10.1910935,22.71875 22.7499995,22.71875 2.365244,0 4.636813,-0.36116 6.78125,-1.03125 l 2.125,1.40625 41.09375,28.34375 -36,52.000001 36.71875,25.8125 -8.71875,-30.15625 27.28125,-37.84375 19.367875,1.00713 -7.74287,-17.725881 27.625,-39.28125 28.75,-1.8125 -35.28125,-25.09375 -36.375005,50.90625 -41.5,-28.71875 c 0.05907,-0.05905 -0.52544,-0.647502 -1.4375,-1.46875 -0.485413,-12.129917 -10.438492,-21.8125 -22.6875,-21.8125 z"
       id="path3897"
       inkscape:connector-curvature="0"
       sodipodi:nodetypes="ssscccccccccccccccs" />
    <path
       style="fill:#f5ac15;fill-opacity:1;stroke:#000000;stroke-width:3;stroke-linecap:butt;stroke-linejoin:miter;stroke-miterlimit:4;stroke-opacity:1;stroke-dasharray:none"
       d="m 575.4858,15.747159 c -13.15937,0 -23.8125,10.68438 -23.8125,23.84375 0,0.02107 -5e-5,0.04144 0,0.0625 l -0.46875,0.0625 -40.875,28.8125 -35.75,-51.6875 -37.03125,26.21875 30.84375,2.3125 27,38.84375 -7.71875,17.468751 18.78125,-1.28125 26.75,38.5625 -7.71875,29.0625 37.03125,-25.1875 -36,-51.437501 40.375,-28.28125 0.5,-1.125 c 2.52897,0.91421 5.24941,1.40625 8.09375,1.40625 13.15937,0 23.84375,-10.65313 23.84375,-23.8125 0,-13.15937 -10.68438,-23.84375 -23.84375,-23.84375 z"
       id="path3921"
       inkscape:connector-curvature="0" />
  </g>
  <g
     inkscape:groupmode="layer"
     id="layer8"
     inkscape:label="Sword Hilt Reflections"
     style="display:inline"
     transform="translate(-3.2045455,-3.2632014)">
    <path
       style="fill:#8a5838;fill-opacity:1;stroke:#8a5838;stroke-width:1px;stroke-linecap:butt;stroke-linejoin:miter;stroke-opacity:1"
       d="M 10.545455,36.363636 C 23.194634,16.926179 49.516525,29.973175 41.454545,51.454539 46.822881,41.119203 46.207414,27.295438 34.90909,23.454545 21.788738,18.994249 14.018495,26.999904 10.545455,36.363636 z"
       id="path3952"
       inkscape:connector-curvature="0"
       sodipodi:nodetypes="ccsc" />
    <path
       style="fill:none;stroke:#8a5838;stroke-width:3;stroke-linecap:butt;stroke-linejoin:miter;stroke-miterlimit:4;stroke-opacity:1;stroke-dasharray:none"
       d="M 131.45455,25.454545 49.818181,142.18181"
       id="path3960"
       inkscape:connector-curvature="0"
       sodipodi:nodetypes="cc" />
    <path
       style="fill:#8a5838;fill-opacity:1;stroke:#8a5838;stroke-width:1px;stroke-linecap:butt;stroke-linejoin:bevel;stroke-opacity:1"
       d="M 560.90909,50.909089 C 556.5067,24.102563 582.3313,20.463679 592.9091,36.545454 591.27963,28.779095 582.58442,18.759963 569.09091,23.272728 c -11.62688,3.888487 -14.21604,19.059846 -8.18182,27.636361 z"
       id="path3973"
       inkscape:connector-curvature="0"
       sodipodi:nodetypes="ccsc" />
    <path
       style="fill:none;stroke:#8a5838;stroke-width:3;stroke-linecap:butt;stroke-linejoin:miter;stroke-miterlimit:4;stroke-opacity:1;stroke-dasharray:none;display:inline"
       d="M 51.272727,48.181817 89.090909,75.090909"
       id="path3957"
       inkscape:connector-curvature="0"
       sodipodi:nodetypes="cc" />
    <path
       style="fill:none;stroke:#8a5838;stroke-width:3;stroke-linecap:butt;stroke-linejoin:miter;stroke-miterlimit:4;stroke-opacity:1;stroke-dasharray:none"
       d="M 552.36364,48.363637 513.63637,75.454539"
       id="path3979"
       inkscape:connector-curvature="0"
       sodipodi:nodetypes="cc" />
    <path
       style="fill:none;stroke:#8a5838;stroke-width:3;stroke-linecap:butt;stroke-linejoin:miter;stroke-miterlimit:4;stroke-opacity:1;stroke-dasharray:none"
       d="M 471.45455,25.090909 553.63637,142.18181"
       id="path3981"
       inkscape:connector-curvature="0"
       sodipodi:nodetypes="cc" />
  </g>
  <g
     inkscape:groupmode="layer"
     id="layer5"
     inkscape:label="Shield"
     style="display:inline"
     transform="translate(-3.2045455,-3.2632014)">
    <path
       style="fill:#8a5838;fill-opacity:1;stroke:#000000;stroke-width:6;stroke-linecap:butt;stroke-linejoin:round;stroke-miterlimit:4;stroke-opacity:1;stroke-dasharray:none"
       d="m 154.18183,107.63636 293.81818,0 0.36363,140.72728 C 429.75751,401.62219 162.96258,387.09287 154.54546,245.81818 z"
       id="path3983"
       inkscape:connector-curvature="0"
       sodipodi:nodetypes="ccccc" />
  </g>
  <g
     inkscape:groupmode="layer"
     id="layer6"
     inkscape:label="Text"
     transform="translate(-3.2045455,-3.2632014)">
    <text
       xml:space="preserve"
       style="font-size:67.15097046px;font-style:normal;font-weight:normal;text-align:center;line-height:101.99999809%;letter-spacing:0px;word-spacing:0px;text-anchor:middle;fill:#f5ac15;fill-opacity:1;stroke:none;font-family:Sans"
       x="301.27423"
       y="166.47942"
       id="text3987"
       sodipodi:linespacing="102%"><tspan
         sodipodi:role="line"
         id="tspan3989"
         x="301.27423"
         y="166.47942"
         style="font-style:normal;font-variant:normal;font-weight:bold;font-stretch:normal;line-height:101.99999809%;fill:#f5ac15;fill-opacity:1;stroke:none;font-family:Times New Roman;-inkscape-font-specification:Times New Roman">Open</tspan><tspan
         sodipodi:role="line"
         x="301.27423"
         y="234.9734"
         id="tspan3991"
         style="font-style:normal;font-variant:normal;font-weight:bold;font-stretch:normal;line-height:101.99999809%;fill:#f5ac15;fill-opacity:1;stroke:none;font-family:Times New Roman;-inkscape-font-specification:Times New Roman">RPG</tspan><tspan
         sodipodi:role="line"
         x="301.27423"
         y="303.46741"
         id="tspan3993"
         style="font-style:normal;font-variant:normal;font-weight:bold;font-stretch:normal;line-height:101.99999809%;fill:#f5ac15;fill-opacity:1;stroke:none;font-family:Times New Roman;-inkscape-font-specification:Times New Roman">Maker</tspan></text>
    <path
       style="fill:none;stroke:none"
       d="M 43.62109,364.09787 C 161.92806,512.18525 413.49385,539.58639 559.288,359.84114"
       id="path4009"
       inkscape:connector-curvature="0"
       sodipodi:nodetypes="cc" />
    <g
       transform="matrix(1.0142494,0,0,1.0142494,-6.702174,31.91859)"
       style="font-size:40px;font-style:normal;font-weight:normal;line-height:125%;letter-spacing:0px;word-spacing:0px;fill:#f5ac15;fill-opacity:1;stroke:none;font-family:Sans"
       id="text4011">
      <path
         d="m 65.455061,345.23369 17.704154,20.21951 -4.276073,3.74412 -6.368864,-7.27374 -17.662682,15.4654 -4.95356,-5.65734 17.662681,-15.46541 -6.38173,-7.28842 4.276074,-3.74412"
         style="-inkscape-font-specification:Sans Bold"
         id="path4025" />
      <path
         d="m 88.89406,392.66757 -9.183336,9.64868 -5.093146,-4.84751 1.494648,-1.57039 5.507309,-5.78638 c 1.319578,-1.38647 2.19323,-2.37049 2.620957,-2.95207 0.437114,-0.57261 0.696928,-1.05334 0.779442,-1.4422 0.1161,-0.51862 0.08967,-1.02912 -0.07929,-1.53149 -0.160029,-0.5118 -0.456962,-0.97417 -0.8908,-1.38711 -1.056378,-1.00541 -2.276864,-1.38509 -3.661463,-1.13905 -1.375661,0.23662 -2.750211,1.07645 -4.123656,2.5195 l -7.419381,7.79535 -5.064851,-4.82058 20.95201,-22.01371 5.064851,4.82058 -8.079181,8.48858 c 1.643683,-0.19718 3.101146,-0.10426 4.372395,0.27877 1.280176,0.37361 2.439022,1.05414 3.476542,2.04159 1.82973,1.74151 2.682073,3.6223 2.557032,5.64236 -0.115671,2.02904 -1.192365,4.11406 -3.230084,6.25508"
         style="-inkscape-font-specification:Sans Bold"
         id="path4027" />
      <path
         d="m 108.60403,411.56265 -1.24035,1.55895 -12.792589,-10.17818 c -0.889018,1.38923 -1.191508,2.72098 -0.907469,3.99524 0.284015,1.27425 1.139275,2.47886 2.565781,3.61383 1.151369,0.91607 2.461988,1.68429 3.931867,2.30467 1.48813,0.61827 3.14467,1.08766 4.96961,1.40816 l -3.35625,4.21834 c -1.68318,-0.5405 -3.26906,-1.20326 -4.757642,-1.98828 -1.496719,-0.77485 -2.892087,-1.67706 -4.186108,-2.70662 -3.097537,-2.4645 -4.88306,-5.16635 -5.356577,-8.10555 -0.455231,-2.94128 0.448065,-5.83332 2.709891,-8.67613 2.221274,-2.79184 4.808917,-4.3188 7.762934,-4.58089 2.964172,-0.25395 5.923712,0.79456 8.878612,3.14554 2.68993,2.14022 4.19536,4.66082 4.5163,7.56179 0.33106,2.90908 -0.5816,5.71879 -2.73801,8.42913 m -4.17738,-6.29378 c 0.82688,-1.0393 1.18597,-2.11802 1.07726,-3.23617 -0.0905,-1.12022 -0.62475,-2.06947 -1.6029,-2.84773 -1.0597,-0.84311 -2.15984,-1.22756 -3.30043,-1.15335 -1.132514,0.064 -2.226155,0.59161 -3.280923,1.58271 l 7.106993,5.65454"
         style="-inkscape-font-specification:Sans Bold"
         id="path4029" />
      <path
         d="m 130.04431,404.97316 6.24958,3.58943 -6.18469,20.88583 14.89006,-15.8859 6.28345,3.60889 -6.21856,20.86637 14.92394,-15.86645 6.19877,3.56026 -20.48478,21.86216 -7.51982,-4.319 6.45089,-21.8591 -15.57968,16.61599 -7.51981,-4.31899 8.51065,-28.73949"
         style="-inkscape-font-specification:Sans Bold"
         id="path4031" />
      <path
         d="m 171.38564,440.24017 c -1.41747,-0.62588 -2.72756,-0.59232 -3.93027,0.10069 -1.18558,0.68638 -2.20176,1.98842 -3.04853,3.90613 -0.84681,1.91773 -1.12711,3.55182 -0.84092,4.90228 0.30333,1.34381 1.16373,2.32866 2.58119,2.95455 1.3936,0.61537 2.68319,0.57987 3.86878,-0.1065 1.1908,-0.69827 2.20961,-2.00627 3.05642,-3.92399 0.84676,-1.91772 1.12444,-3.54585 0.83303,-4.88441 -0.2862,-1.35046 -1.1261,-2.33337 -2.5197,-2.94875 m 2.01967,-4.57394 c 3.44234,1.52003 5.71809,3.63514 6.82726,6.34534 1.12101,2.71548 0.95572,5.71697 -0.49589,9.00449 -1.45167,3.28751 -3.5585,5.43169 -6.32051,6.43255 -2.75015,1.00611 -5.84639,0.74916 -9.28874,-0.77085 -3.45428,-1.52528 -5.7479,-3.64828 -6.88085,-6.36901 -1.12106,-2.71547 -0.95576,-5.71696 0.49588,-9.00449 1.45164,-3.2875 3.55847,-5.43169 6.32052,-6.43255 2.77393,-0.99558 5.88804,-0.73074 9.34233,0.79452"
         style="-inkscape-font-specification:Sans Bold"
         id="path4033" />
      <path
         d="m 200.82076,453.25321 c -0.47868,-0.47692 -0.98381,-0.88036 -1.5154,-1.2103 -0.51498,-0.33776 -1.06033,-0.61037 -1.63606,-0.81781 -1.69052,-0.60906 -3.19155,-0.53397 -4.50308,0.22526 -1.29491,0.75141 -2.30647,2.13774 -3.03468,4.15898 l -3.41606,9.48152 -6.57826,-2.37005 7.41469,-20.58004 6.57827,2.37005 -1.21813,3.38101 c 1.33072,-1.04296 2.65155,-1.67429 3.96249,-1.894 1.32757,-0.22752 2.75699,-0.0654 4.28827,0.48622 0.22048,0.0795 0.45494,0.17778 0.70339,0.29495 0.25281,0.10494 0.61319,0.27631 1.08115,0.51408 l -2.12659,5.96013"
         style="-inkscape-font-specification:Sans Bold"
         id="path4035" />
      <path
         d="m 207.69034,440.12878 6.68714,2.04274 -8.87854,29.06479 -6.68714,-2.04275 8.87854,-29.06478"
         style="-inkscape-font-specification:Sans Bold"
         id="path4037" />
      <path
         d="m 230.77233,458.52623 2.71958,-11.39881 6.83929,1.63175 -7.05278,29.56092 -6.83929,-1.63175 0.73429,-3.07768 c -1.23641,1.03026 -2.48771,1.70223 -3.75391,2.0159 -1.26623,0.31367 -2.64026,0.29373 -4.1221,-0.0598 -2.62173,-0.62551 -4.52705,-2.17777 -5.71597,-4.65678 -1.18591,-2.49167 -1.38754,-5.37767 -0.6049,-8.658 0.78263,-3.28031 2.26397,-5.75808 4.44404,-7.43332 2.18307,-1.68787 4.58547,-2.21907 7.20721,-1.59358 1.46917,0.35054 2.69635,0.95791 3.68156,1.8221 1.00086,0.85458 1.82185,2.01426 2.46298,3.47906 m -7.76969,12.70387 c 1.4565,0.3475 2.69163,0.08 3.70539,-0.80262 1.0264,-0.87956 1.78134,-2.33257 2.26484,-4.35903 0.48346,-2.02645 0.46583,-3.66378 -0.0529,-4.91201 -0.50612,-1.24518 -1.48742,-2.04153 -2.94392,-2.38905 -1.44386,-0.34446 -2.67899,-0.0769 -3.70539,0.80263 -1.01376,0.88259 -1.76238,2.33711 -2.24585,4.36356 -0.48349,2.02646 -0.47218,3.66228 0.0339,4.90747 0.51875,1.24822 1.50005,2.04457 2.94392,2.38905"
         style="-inkscape-font-specification:Sans Bold"
         id="path4039" />
      <path
         d="m 256.53038,460.01121 6.93223,0.91375 -2.85866,21.68741 -6.93223,-0.91375 2.85866,-21.68741 m 1.11284,-8.4426 6.93222,0.91376 -0.74529,5.65421 -6.93223,-0.91375 0.7453,-5.65422"
         style="-inkscape-font-specification:Sans Bold"
         id="path4041" />
      <path
         d="m 285.95479,463.61006 -0.4012,5.29733 c -1.44594,-0.73628 -2.85172,-1.31284 -4.21735,-1.72968 -1.36567,-0.41681 -2.66522,-0.67193 -3.89865,-0.76536 -1.32434,-0.10029 -2.32388,-0.006 -2.99862,0.28216 -0.66079,0.27642 -1.01724,0.75869 -1.06935,1.44681 -0.0423,0.55831 0.16545,1.00496 0.62324,1.33996 0.47075,0.336 1.33043,0.6231 2.57904,0.86129 l 1.21368,0.2682 c 3.53607,0.72486 5.8815,1.65333 7.0363,2.78543 1.15476,1.13212 1.64807,2.80827 1.47995,5.02847 -0.17604,2.32408 -1.16522,4.00548 -2.96754,5.0442 -1.80236,1.03873 -4.40439,1.42928 -7.80609,1.17165 -1.4412,-0.10916 -2.92546,-0.33909 -4.45281,-0.68981 -1.51536,-0.33676 -3.0673,-0.79381 -4.65584,-1.37115 l 0.4012,-5.29733 c 1.33811,0.78037 2.72147,1.39441 4.15008,1.84211 1.44158,0.44869 2.91542,0.73007 4.42153,0.84414 1.36327,0.10325 2.40324,-0.007 3.1199,-0.33174 0.71664,-0.32441 1.10299,-0.85664 1.15905,-1.59672 0.0472,-0.62321 -0.1581,-1.10232 -0.61586,-1.43733 -0.44383,-0.347 -1.36695,-0.65849 -2.76937,-0.93447 l -1.21516,-0.24873 c -3.0736,-0.62452 -5.19378,-1.50982 -6.36056,-2.6559 -1.16678,-1.14607 -1.66904,-2.79025 -1.50679,-4.93257 0.17503,-2.31107 1.09683,-3.96493 2.76541,-4.96157 1.66856,-0.99661 4.13879,-1.37102 7.41068,-1.12324 1.28536,0.0974 2.62829,0.29701 4.02877,0.59893 1.40045,0.30196 2.9159,0.7236 4.54636,1.26492"
         style="-inkscape-font-specification:Sans Bold"
         id="path4043" />
      <path
         d="m 300.11797,456.17679 8.2164,-0.32082 7.04096,10.12363 6.23017,-10.6418 8.23592,-0.32157 -10.44644,17.29574 0.47931,12.2758 -7.5138,0.29338 -0.47931,-12.2758 -11.76321,-16.42856"
         style="-inkscape-font-specification:Sans Bold"
         id="path4045" />
      <path
         d="m 338.56842,465.44647 c -1.53858,0.18353 -2.64882,0.87983 -3.33072,2.08888 -0.67053,1.19461 -0.88165,2.8327 -0.63335,4.91429 0.24828,2.08161 0.83955,3.63055 1.77379,4.64684 0.94562,1.00183 2.18771,1.41098 3.7263,1.22745 1.5127,-0.18043 2.60431,-0.86794 3.27485,-2.06254 0.66897,-1.20752 0.87931,-2.85208 0.63104,-4.93369 -0.24831,-2.08158 -0.8388,-3.62406 -1.77148,-4.62745 -0.93425,-1.01627 -2.15773,-1.4342 -3.67043,-1.25378 m -0.5922,-4.96481 c 3.73652,-0.44567 6.77234,0.21505 9.10747,1.98214 2.34801,1.7656 3.73485,4.43261 4.16052,8.00105 0.42562,3.56846 -0.295,6.48685 -2.16185,8.75517 -1.85397,2.26679 -4.64921,3.62303 -8.38572,4.06872 -3.74948,0.44723 -6.80469,-0.21117 -9.16565,-1.9752 -2.34804,-1.76558 -3.73488,-4.43259 -4.16052,-8.00105 -0.42564,-3.56844 0.29497,-6.48683 2.16185,-8.75517 1.8798,-2.26985 4.69443,-3.6284 8.4439,-4.07566"
         style="-inkscape-font-specification:Sans Bold"
         id="path4047" />
      <path
         d="m 355.6174,472.14967 -2.70909,-13.08181 6.88516,-1.42584 0.44359,2.14205 c 0.24028,1.1603 0.53623,2.62153 0.88787,4.38369 0.34898,1.74945 0.58421,2.91742 0.70568,3.50392 0.35645,1.7213 0.65852,2.95521 0.9062,3.70174 0.24503,0.73379 0.51158,1.25037 0.79963,1.54973 0.37292,0.38818 0.80759,0.65718 1.30403,0.80702 0.50917,0.1472 1.05701,0.16007 1.64354,0.0386 1.42802,-0.29572 2.43651,-1.07634 3.02546,-2.34186 0.58893,-1.2655 0.6814,-2.87366 0.27743,-4.82447 l -2.19025,-10.57637 6.84692,-1.41792 4.43594,21.42051 -6.84691,1.41791 -0.64163,-3.09832 c -0.77403,1.46341 -1.67912,2.61489 -2.71528,3.45443 -1.02608,0.82415 -2.234,1.38013 -3.62378,1.66794 -2.47356,0.51225 -4.51771,0.14439 -6.13245,-1.10357 -1.60199,-1.2506 -2.70268,-3.32306 -3.30206,-6.21738"
         style="-inkscape-font-specification:Sans Bold"
         id="path4049" />
      <path
         d="m 396.65613,454.48423 c -0.66718,-0.10712 -1.31285,-0.13914 -1.93703,-0.0961 -0.61526,0.027 -1.21709,0.12465 -1.80546,0.2929 -1.72762,0.49411 -2.90156,1.43252 -3.52181,2.81521 -0.61134,1.36662 -0.62162,3.08274 -0.0309,5.14834 l 2.77121,9.68964 -6.72266,1.92266 -6.01502,-21.03177 6.72265,-1.92266 0.98818,3.45522 c 0.46996,-1.6241 1.17253,-2.90846 2.1077,-3.85308 0.94409,-0.96068 2.19857,-1.6648 3.76345,-2.11237 0.22532,-0.0644 0.47302,-0.12172 0.74309,-0.1719 0.26647,-0.0626 0.65904,-0.13428 1.17771,-0.21493 l 1.75884,6.07882"
         style="-inkscape-font-specification:Sans Bold"
         id="path4051" />
      <path
         d="m 438.49992,453.53654 c -0.9949,1.19503 -2.11191,2.25069 -3.35103,3.16701 -1.23916,0.91633 -2.60895,1.68983 -4.10938,2.3205 -4.47735,1.88194 -8.54912,2.12449 -12.21534,0.72764 -3.67128,-1.40884 -6.40752,-4.2559 -8.20873,-8.54118 -1.80626,-4.29726 -1.92572,-8.24422 -0.35839,-11.84089 1.56229,-3.60862 4.5821,-6.35391 9.05943,-8.23588 1.50044,-0.63065 3.0115,-1.06805 4.5332,-1.31221 1.52167,-0.24408 3.05745,-0.30345 4.60734,-0.17811 l 2.33855,5.56366 c -1.65272,-0.33637 -3.18902,-0.44627 -4.60892,-0.3297 -1.41993,0.11663 -2.82009,0.46505 -4.2005,1.04524 -2.47274,1.03938 -4.08432,2.64898 -4.83474,4.82878 -0.75043,2.17986 -0.54038,4.66218 0.63016,7.44699 1.16549,2.77284 2.78944,4.65381 4.87187,5.64291 2.0824,0.98913 4.35998,0.964 6.83273,-0.0754 1.38039,-0.58021 2.60901,-1.33675 3.68586,-2.2696 1.0768,-0.93284 2.07325,-2.10732 2.98934,-3.52345 l 2.33855,5.56365"
         style="-inkscape-font-specification:Sans Bold"
         id="path4053" />
      <path
         d="m 451.60935,430.72749 c -0.67527,0.0246 -1.31486,0.1186 -1.91877,0.28214 -0.59829,0.14604 -1.16967,0.35876 -1.71414,0.63813 -1.59868,0.82039 -2.5679,1.96901 -2.90766,3.44587 -0.33413,1.45937 -0.0108,3.14477 0.97012,5.05622 l 4.60118,8.96647 -6.22093,3.1923 -9.98706,-19.46212 6.22092,-3.1923 1.64074,3.19735 c 0.14542,-1.68446 0.58502,-3.08086 1.31882,-4.18919 0.73943,-1.12581 1.83319,-2.06027 3.28126,-2.80338 0.20852,-0.10698 0.44036,-0.21132 0.69554,-0.31301 0.24921,-0.11323 0.62038,-0.25979 1.11349,-0.43968 l 2.90649,5.6212"
         style="-inkscape-font-specification:Sans Bold"
         id="path4055" />
      <path
         d="m 474.90346,422.44175 1.03501,1.70222 -13.96823,8.49319 c 0.99699,1.3139 2.14248,2.05748 3.43647,2.23073 1.29397,0.17327 2.71975,-0.21364 4.27735,-1.16072 1.25719,-0.76441 2.43058,-1.72931 3.52018,-2.89472 1.09393,-1.18326 2.10625,-2.57597 3.03696,-4.17813 l 2.80063,4.60601 c -1.08827,1.39317 -2.25769,2.65282 -3.50827,3.77895 -1.24385,1.13728 -2.57225,2.13548 -3.98519,2.9946 -3.3822,2.0565 -6.5343,2.7997 -9.4563,2.2296 -2.91765,-0.58798 -5.32016,-2.434 -7.20754,-5.53806 -1.85355,-3.04841 -2.39349,-6.00408 -1.61984,-8.86701 0.78478,-2.86965 2.79039,-5.28539 6.01682,-7.2472 2.93716,-1.78588 5.82247,-2.32876 8.65593,-1.62865 2.84456,0.6934 5.16657,2.51979 6.96602,5.47919 m -7.34887,1.74824 c -0.69001,-1.1348 -1.57849,-1.84415 -2.66544,-2.12808 -1.0826,-0.30177 -2.15793,-0.12795 -3.22598,0.52144 -1.15707,0.70356 -1.89763,1.60339 -2.22167,2.6995 -0.33081,1.08501 -0.21315,2.29354 0.35296,3.62558 l 7.76013,-4.71844"
         style="-inkscape-font-specification:Sans Bold"
         id="path4057" />
      <path
         d="m 487.12104,415.12632 c -1.17963,0.85747 -1.92415,1.7045 -2.23356,2.5411 -0.29889,0.82897 -0.16507,1.63314 0.40147,2.41252 0.52059,0.71621 1.16716,1.10743 1.93969,1.17367 0.77541,0.0481 1.58967,-0.23796 2.4428,-0.8581 1.06375,-0.77323 1.68339,-1.80314 1.85891,-3.08973 0.16784,-1.2971 -0.16548,-2.51967 -0.99996,-3.66771 l -0.47083,-0.64774 -2.93852,2.13599 m 7.09146,-8.41443 7.33814,10.09524 -5.70325,4.14564 -1.90631,-2.62255 c 0.0226,1.62553 -0.2602,3.03031 -0.84827,4.21435 -0.59575,1.17352 -1.57296,2.25408 -2.93162,3.24168 -1.83263,1.33212 -3.70958,1.88354 -5.63084,1.65426 -1.91839,-0.24746 -3.4977,-1.22431 -4.73795,-2.93055 -1.5082,-2.07486 -1.90354,-4.11355 -1.18602,-6.11608 0.72806,-2.01015 2.61928,-4.12533 5.67365,-6.34555 l 3.33348,-2.42308 -0.32154,-0.44236 c -0.65075,-0.89522 -1.47825,-1.29175 -2.48249,-1.1896 -1.0119,0.0917 -2.26565,0.68107 -3.76124,1.76818 -1.21121,0.88044 -2.25013,1.82074 -3.11675,2.82089 -0.86661,1.00019 -1.57146,2.06789 -2.11454,3.20311 l -3.13507,-4.31299 c 0.99686,-1.1753 2.05257,-2.28073 3.16713,-3.31629 1.10692,-1.04604 2.27125,-2.01311 3.49299,-2.90121 3.1913,-2.3197 5.95196,-3.36056 8.282,-3.1226 2.3329,0.21984 4.52907,1.74634 6.5885,4.57951"
         style="-inkscape-font-specification:Sans Bold"
         id="path4059" />
      <path
         d="m 494.44199,386.22757 3.98816,4.76134 5.52494,-4.62778 3.2106,3.83302 -5.52494,4.62778 5.95717,7.11205 c 0.65215,0.77859 1.25,1.17803 1.79354,1.19832 0.53518,0.0103 1.26193,-0.36911 2.18027,-1.13833 l 2.75498,-2.30761 3.2106,3.83302 -4.59663,3.85021 c -2.11615,1.77252 -3.9863,2.59164 -5.61044,2.45736 -1.62252,-0.15261 -3.32004,-1.287 -5.09256,-3.40315 l -5.95717,-7.11205 -2.66515,2.23237 -3.21059,-3.83302 2.66514,-2.23237 -3.98816,-4.76133 5.36024,-4.48983"
         style="-inkscape-font-specification:Sans Bold"
         id="path4061" />
      <path
         d="m 506.31474,384.12077 5.13918,-4.74125 14.83296,16.0779 -5.13918,4.74125 -14.83296,-16.0779 m -5.77426,-6.2589 5.13918,-4.74125 3.86717,4.19174 -5.13919,4.74125 -3.86716,-4.19174"
         style="-inkscape-font-specification:Sans Bold"
         id="path4063" />
      <path
         d="m 525.95692,371.29757 c -1.07554,1.1154 -1.49498,2.35699 -1.25832,3.72475 0.23634,1.34939 1.10904,2.75165 2.61809,4.20679 1.50905,1.45516 2.9468,2.28081 4.31324,2.47696 1.36611,0.17776 2.58694,-0.29106 3.66249,-1.40646 1.05746,-1.09662 1.46803,-2.31963 1.2317,-3.66902 -0.24572,-1.35839 -1.1231,-2.76517 -2.63214,-4.22034 -1.50906,-1.45513 -2.94212,-2.27626 -4.29919,-2.46341 -1.36645,-0.19613 -2.5784,0.25411 -3.63587,1.35073 m -3.59923,-3.47067 c 2.61204,-2.70877 5.38125,-4.1174 8.30762,-4.2259 2.93541,-0.1178 5.69659,1.07055 8.28354,3.56506 2.58694,2.49457 3.87489,5.21072 3.86386,8.14845 -0.002,2.9284 -1.30903,5.74699 -3.92106,8.45577 -2.62109,2.71818 -5.40385,4.14087 -8.3483,4.26807 -2.93541,0.11785 -5.69659,-1.0705 -8.28354,-3.56505 -2.58693,-2.49454 -3.87489,-5.21068 -3.86386,-8.14846 0.0201,-2.94711 1.34067,-5.77975 3.96174,-8.49794"
         style="-inkscape-font-specification:Sans Bold"
         id="path4065" />
      <path
         d="m 553.91118,345.46149 10.26815,8.48504 -4.4789,5.42013 -1.67121,-1.38099 -6.18799,-5.11342 c -1.45541,-1.20264 -2.48817,-1.99694 -3.09828,-2.38288 -0.60182,-0.39594 -1.09956,-0.62145 -1.49324,-0.67653 -0.52549,-0.0795 -1.03288,-0.0174 -1.52218,0.18636 -0.49934,0.19548 -0.93978,0.52406 -1.32132,0.98576 -0.92895,1.12419 -1.22222,2.36827 -0.87982,3.73224 0.33238,1.35571 1.26642,2.66807 2.80212,3.93708 l 8.29583,6.85521 -4.45402,5.39002 -16.86266,-13.93436 4.45402,-5.39003 2.46918,2.04039 c -0.31181,-1.62584 -0.32119,-3.08623 -0.0281,-4.38118 0.28304,-1.3032 0.88073,-2.50686 1.7931,-3.61099 1.60909,-1.94721 3.42556,-2.92918 5.44942,-2.94592 2.03216,-0.0267 4.18747,0.9013 6.46594,2.78407"
         style="-inkscape-font-specification:Sans Bold"
         id="path4067" />
    </g>
  </g>
</svg>
